<?xml version="1.0" standalone="no"?><!DOCTYPE svg PUBLIC "-//W3C//DTD SVG 1.1//EN" "http://www.w3.org/Graphics/SVG/1.1/DTD/svg11.dtd"><svg class="icon" width="200px" height="200.00px" viewBox="0 0 1024 1024" version="1.1" xmlns="http://www.w3.org/2000/svg"><path fill="#333333" d="M512.007775 0a511.992716 511.992716 0 1 0 511.992715 511.298958A511.992716 511.992716 0 0 0 512.007775 0z m219.227233 664.61927a47.869238 47.869238 0 1 1-65.906921 69.375707L512.007775 577.899637l-153.320312 152.626555a49.048625 49.048625 0 1 1-69.375707-69.375707l152.626555-153.320312-152.626555-152.626555a49.048625 49.048625 0 0 1 69.375707-69.375706l153.320312 159.564125 153.320312-153.320312a47.869238 47.869238 0 0 1 65.906921 69.375707l-152.626555 152.626555z"  /></svg>